<?xml version="1.0" encoding="UTF-8"?><svg id="Calque_2" xmlns="http://www.w3.org/2000/svg" viewBox="0 0 316.91 111.16"><defs><style>.cls-1{fill:#161c51;}.cls-2{fill:#734cf7;}</style></defs><g id="Calque_2-2"><path class="cls-2" d="M49.99,21.33h-12.42c-.72,0-1.33.25-1.79.7-.48.46-.7,1.06-.7,1.79v27.1c0,3.12-.82,5.51-2.43,7.21s-3.78,2.53-6.5,2.53c-5.84,0-8.75-3.25-8.75-9.74v-27.1c0-.72-.25-1.33-.7-1.79-.46-.48-1.06-.7-1.79-.7H2.49c-.72,0-1.33.25-1.79.7-.48.46-.7,1.06-.7,1.79v27.7c0,4.83.84,8.92,2.49,12.26,1.65,3.33,3.95,5.88,6.9,7.59,2.95,1.73,6.31,2.59,10.08,2.59l.06.02c3.76,0,7.04-.63,9.77-1.84,2.74-1.24,4.96-3.04,6.69-5.42v3.76c0,.72.25,1.33.74,1.79.49.48,1.06.7,1.73.7h11.52c.72,0,1.33-.25,1.79-.7.48-.46.7-1.06.7-1.79V23.82c0-.72-.25-1.33-.7-1.79-.46-.48-1.06-.7-1.79-.7Z"/><path class="cls-2" d="M102.32,22.91c-2.95-1.73-6.41-2.59-10.17-2.59s-7.05.68-9.83,2.09c-2.78,1.41-5.04,3.12-6.75,5.17v-3.76c0-.72-.25-1.33-.7-1.79-.46-.48-1.06-.7-1.79-.7h-11.41c-.72,0-1.33.25-1.79.7-.48.46-.7,1.06-.7,1.79v46.66c0,.72.25,1.33.7,1.79.46.48,1.06.7,1.79.7l.02-.02h12.42c.65,0,1.24-.25,1.73-.7.49-.46.74-1.06.74-1.79v-27.1c0-3.12.82-5.51,2.43-7.21,1.62-1.69,3.78-2.53,6.5-2.53,2.91,0,5.11.84,6.6,2.53,1.48,1.69,2.22,4.09,2.22,7.21v27.1c0,.72.25,1.33.74,1.79.49.48,1.06.7,1.73.7h12.51c.65,0,1.24-.25,1.73-.7.49-.46.74-1.06.74-1.79v-27.7c0-4.83-.84-8.92-2.53-12.26-1.67-3.33-3.99-5.86-6.94-7.59Z"/><path class="cls-1" d="M155.5,2.47h-11.71c-.72,0-1.33.25-1.79.7-.48.46-.7,1.06-.7,1.79v65.52c0,.72.25,1.33.7,1.79.46.48,1.06.7,1.79.7h11.71c.72,0,1.33-.25,1.79-.7.48-.46.7-1.06.7-1.79V4.96c0-.72-.25-1.33-.7-1.79-.46-.48-1.06-.7-1.79-.7Z"/><path class="cls-1" d="M216.67,23.44c0-.53-.21-1.01-.65-1.45-.44-.44-.95-.65-1.54-.65h-11.12c-.86,0-1.5.21-1.94.65-.44.44-.78.91-1.05,1.45l-11.62,28.88-11.41-28.88c-.13-.53-.4-1.01-.84-1.45-.44-.44-1.08-.65-1.94-.65h-11.31c-.59,0-1.08.21-1.48.65-.4.44-.67.95-.8,1.54,0,.34.11.74.3,1.2l19.05,45.06-7.74,18.67c-.13.27-.21.51-.25.74-.06.23-.06.42-.06.55,0,.59.19,1.08.59,1.48s.89.59,1.48.59l.02.02h10.91c.86,0,1.52-.21,1.98-.65s.8-.91.99-1.45l28.1-65.03c.21-.53.3-.97.3-1.29Z"/><path class="cls-1" d="M260.5,66.23c1.88-2.45,2.83-5.27,2.83-8.44,0-2.4-.57-4.66-1.69-6.81-1.12-2.17-3.04-4.05-5.76-5.67-2.7-1.62-6.35-2.8-10.91-3.52-3.71-.72-6.45-1.39-8.2-1.98-1.77-.59-2.91-1.25-3.48-1.98-.55-.72-.84-1.52-.84-2.38,0-1.25.49-2.28,1.48-3.08.99-.8,2.38-1.2,4.16-1.2,1.6,0,2.91.27,3.97.8,1.05.53,1.98,1.12,2.78,1.79.8.67,1.58,1.2,2.38,1.6.21.13.44.25.7.34.27.1.53.15.8.15h10.32c.61,0,1.14-.25,1.6-.74.46-.49.65-1.06.59-1.73-.08-1.2-.61-2.51-1.6-3.97s-2.45-2.89-4.41-4.28c-1.96-1.39-4.34-2.53-7.15-3.42-2.81-.87-6.14-1.33-9.98-1.33-4.83,0-8.9.78-12.21,2.34-3.31,1.56-5.82,3.56-7.55,6.01-1.73,2.45-2.59,5-2.59,7.64,0,2.97.7,5.5,2.09,7.59,1.39,2.07,3.37,3.76,5.95,5.06s5.59,2.34,9.03,3.14c3.65.65,6.37,1.31,8.2,1.98,1.83.67,3.04,1.33,3.63,2.03.59.68.89,1.56.89,2.62,0,1.45-.63,2.55-1.88,3.27-1.26.72-2.81,1.08-4.66,1.08-1.58,0-2.95-.27-4.07-.8-1.14-.53-2.13-1.14-2.99-1.84-.86-.68-1.73-1.27-2.59-1.73-.27-.21-.46-.34-.59-.4-.13-.06-.3-.1-.49-.1h-11.31c-.61,0-1.16.25-1.69.74-.53.51-.78,1.12-.7,1.84.06,1.06.55,2.34,1.48,3.82.93,1.48,2.34,2.93,4.22,4.32s4.34,2.57,7.34,3.52c3,.97,6.67,1.45,10.97,1.45h.02c5.29,0,9.79-.68,13.5-2.03,3.71-1.35,6.5-3.25,8.39-5.7Z"/><path class="cls-1" d="M314.04,33.26c-1.92-3.97-4.79-7.11-8.59-9.43-3.82-2.32-8.63-3.48-14.45-3.48-5.1,0-9.55.97-13.35,2.93-3.8,1.96-6.79,4.79-8.94,8.54-2.15,3.75-3.33,8.23-3.52,13.46v3.48c.19,8.35,2.6,14.62,7.24,18.86,4.64,4.24,10.85,6.35,18.65,6.35,4.04,0,7.57-.5,10.61-1.48,3.04-.99,5.57-2.26,7.59-3.82,2.02-1.56,3.56-3.14,4.62-4.72,1.06-1.58,1.64-2.95,1.69-4.07.06-.67-.11-1.18-.55-1.54-.44-.36-.97-.55-1.64-.55h-12.3c-.78,0-1.37.08-1.73.25-.36.15-.86.57-1.45,1.24-.32.4-.8.87-1.39,1.45-.59.55-1.33,1.05-2.22,1.48-.89.44-2,.65-3.33.65-1.79,0-3.31-.46-4.56-1.39-1.25-.91-2.19-2.19-2.78-3.76-.59-1.6-.93-3.35-.99-5.27v-.7h31.77c.65,0,1.24-.25,1.73-.7.49-.46.74-1.06.74-1.79v-2.38c0-5.1-.95-9.62-2.87-13.6ZM299.44,41.89h-16.79v-.19c0-2.11.32-3.97.99-5.55s1.62-2.81,2.83-3.67c1.24-.86,2.74-1.29,4.53-1.29s3.33.44,4.62,1.29,2.24,2.07,2.87,3.67c.63,1.58.95,3.44.95,5.55v.19Z"/><path class="cls-1" d="M291.11,73.97s-.01,0-.02,0c0,0-.01,0-.02,0h.04Z"/><path class="cls-2" d="M132.17,21.33h-11.71c-.72,0-1.33.25-1.79.7-.48.46-.7,1.06-.7,1.79v46.66c0,.72.25,1.33.7,1.79.46.48,1.06.7,1.79.7h11.71c.65,0,1.24-.25,1.73-.7s.74-1.06.74-1.79V23.82c0-.72-.25-1.33-.74-1.79-.49-.48-1.06-.7-1.73-.7Z"/><circle class="cls-2" cx="126.31" cy="8.84" r="8.84"/><path class="cls-1" d="M227.64,91.8c-.92-.63-2.03-.94-3.32-.94-1.11,0-2.1.24-2.97.7s-1.53,1.14-1.97,2.03v-9.17h-2.6v20.39h2.38l.18-2.47c.44.92,1.09,1.6,1.95,2.08s1.82.72,2.87.72c1.31,0,2.43-.29,3.39-.9.94-.59,1.68-1.44,2.19-2.51.52-1.07.77-2.23.77-3.63s-.26-2.65-.76-3.74c-.5-1.09-1.22-1.95-2.14-2.56ZM227.42,100.5c-.33.72-.83,1.29-1.46,1.69s-1.38.61-2.27.61-1.64-.2-2.28-.61c-.64-.41-1.14-.98-1.47-1.69-.35-.72-.52-1.55-.52-2.49s.18-1.79.52-2.49c.35-.72.83-1.27,1.47-1.68.65-.41,1.4-.61,2.28-.61s1.64.2,2.27.63c.63.42,1.11.98,1.46,1.69.35.72.52,1.51.52,2.45s-.18,1.77-.52,2.49Z"/><path class="cls-1" d="M237.99,102.19l-3.95-10.92h-2.73l5.46,14.25-.48,1.31c-.2.59-.46,1.01-.76,1.27-.29.26-.63.42-.98.52-.35.09-.74.13-1.16.13h-1.75v2.14h.02c.33.09.7.15,1.07.2s.77.07,1.2.07c1.03,0,1.9-.26,2.6-.77.7-.52,1.29-1.36,1.75-2.52l6.41-16.6h-2.69l-4.01,10.92Z"/><path class="cls-1" d="M268.19,85.74c-1.44-.88-3.11-1.33-5.01-1.33s-3.56.44-4.99,1.33c-1.44.88-2.56,2.1-3.39,3.65-.83,1.55-1.23,3.33-1.23,5.38s.41,3.85,1.22,5.4c.81,1.55,1.93,2.78,3.39,3.65,1.46.87,3.08,1.31,4.97,1.31s3.57-.42,5.03-1.31c1.46-.87,2.58-2.08,3.41-3.65.83-1.55,1.23-3.35,1.23-5.38v-.02c0-2.04-.41-3.83-1.23-5.38-.81-1.55-1.95-2.76-3.39-3.65ZM269.11,98.84c-.57,1.16-1.36,2.06-2.38,2.73-1.01.64-2.21.98-3.57.98s-2.54-.33-3.56-.98c-1.01-.64-1.82-1.55-2.38-2.71-.57-1.16-.85-2.52-.85-4.07s.29-2.91.85-4.07c.57-1.16,1.36-2.06,2.38-2.71,1.03-.64,2.19-.96,3.56-.96s2.56.31,3.57.96,1.82,1.55,2.38,2.71c.57,1.16.85,2.52.85,4.07s-.29,2.89-.85,4.05Z"/><path class="cls-1" d="M282.21,90.98c-1.05,0-1.93.29-2.63.85-.52.43-.9.94-1.14,1.54l-.17-2.07h-2.43v13.52h2.6v-7.17c0-1.31.35-2.32,1.07-3.04.72-.72,1.69-1.07,2.93-1.07h1.16v-2.39c-.26-.06-.48-.09-.7-.13-.22-.04-.44-.04-.68-.04Z"/><path class="cls-1" d="M287.31,84.6c-.46,0-.88.17-1.22.5-.35.33-.52.76-.52,1.22s.18.88.52,1.22c.35.35.76.52,1.22.52s.88-.18,1.22-.52c.33-.35.5-.74.5-1.22s-.17-.88-.5-1.22c-.33-.33-.76-.5-1.22-.5Z"/><rect class="cls-1" x="286.02" y="91.27" width="2.6" height="13.54"/><polygon class="cls-1" points="300.63 91.27 297.27 96.32 293.83 91.27 290.81 91.27 295.52 98.1 290.79 104.81 293.77 104.81 297.11 99.85 300.48 104.81 303.5 104.81 298.88 98.1 303.57 91.27 300.63 91.27"/><path class="cls-1" d="M314.24,91.44c-.85-.39-1.79-.59-2.95-.59s-2.17.2-3.06.59c-.88.39-1.57.94-2.04,1.64-.48.7-.72,1.53-.72,2.47h2.27c0-.83.29-1.46.9-1.92.59-.46,1.44-.68,2.52-.68.61,0,1.16.11,1.64.29.48.2.87.52,1.14.98s.42,1.07.42,1.82v.39l-4.26.33c-1.58.13-2.82.55-3.7,1.31-.88.76-1.33,1.77-1.33,2.98s.41,2.21,1.23,2.97c.81.77,1.95,1.14,3.39,1.14l-.04-.04c1.11,0,2.06-.22,2.93-.68.87-.44,1.47-1.07,1.82-1.84l.28,2.19h2.21v-8.51c0-1.22-.24-2.25-.7-3.04-.48-.81-1.12-1.4-1.97-1.81ZM314.41,98.97c0,1.27-.35,2.28-1.05,3.04-.7.76-1.68,1.12-2.91,1.12v-.02c-.85,0-1.51-.17-2.01-.53-.5-.35-.74-.9-.74-1.62,0-.66.24-1.22.76-1.64.52-.42,1.34-.68,2.49-.79l3.46-.28v.72Z"/></g></svg>