<svg xmlns="http://www.w3.org/2000/svg" viewBox="0 14 35 30" width="100" height="100" version="1.1" xmlns:xlink="http://www.w3.org/1999/xlink">
  <path d="M28.551 12.182h-7.093c-.411 0-.76.143-1.022.4-.274.263-.4.605-.4 1.022v15.478c0 1.782-.468 3.147-1.388 4.118s-2.159 1.445-3.712 1.445c-3.335 0-4.997-1.856-4.997-5.563V13.604c0-.411-.143-.76-.4-1.022-.263-.274-.605-.4-1.022-.4H1.422c-.411 0-.76.143-1.022.4-.274.263-.4.605-.4 1.022v15.821c0 2.759.48 5.095 1.422 7.002.942 1.902 2.256 3.358 3.941 4.335q2.528 1.48 5.757 1.479l.034.011c2.147 0 4.021-.36 5.58-1.051 1.565-.708 2.833-1.736 3.821-3.096v2.147c0 .411.143.76.423 1.022.28.274.605.4.988.4h6.58c.411 0 .76-.143 1.022-.4.274-.263.4-.605.4-1.022V13.605c0-.411-.143-.76-.4-1.022-.263-.274-.605-.4-1.022-.4Z" style="fill:#734cf7"></path>
</svg>